HIERARCHY
ROOT Hips
{
	OFFSET 0.000000 0.000000 0.000000
	CHANNELS 6 Xposition Yposition Zposition Zrotation Yrotation Xrotation 
	JOINT LowerBack
	{
		OFFSET 0.000000 0.000000 0.000000
		CHANNELS 3 Zrotation Yrotation Xrotation
		JOINT Spine
		{
			OFFSET 0.028270 2.035590 -0.193380
			CHANNELS 3 Zrotation Yrotation Xrotation
			JOINT Spine1
			{
				OFFSET 0.056720 2.048850 -0.042750
				CHANNELS 3 Zrotation Yrotation Xrotation
				JOINT Neck
				{
					OFFSET 0.000000 0.000000 0.000000
					CHANNELS 3 Zrotation Yrotation Xrotation
					JOINT Neck1
					{
						OFFSET -0.054170 1.746240 0.172020
						CHANNELS 3 Zrotation Yrotation Xrotation
						JOINT Head
						{
							OFFSET 0.104070 1.761360 -0.123970
							CHANNELS 3 Zrotation Yrotation Xrotation
							End Site
							{
								OFFSET 0.000000 0.000000 0.000000
							}
						}
					}
				}
				JOINT LeftShoulder
				{
					OFFSET 0.000000 0.000000 0.000000
					CHANNELS 3 Zrotation Yrotation Xrotation
					JOINT LeftArm
					{
						OFFSET 3.362410 1.200890 -0.311210
						CHANNELS 3 Zrotation Yrotation Xrotation
						JOINT LeftForeArm
						{
							OFFSET 4.983000 -0.000000 -0.000000
							CHANNELS 3 Zrotation Yrotation Xrotation
							JOINT LeftHand
							{
								OFFSET 3.483560 -0.000000 -0.000000
								CHANNELS 3 Zrotation Yrotation Xrotation
								JOINT LeftFingerBase
								{
									OFFSET 0.000000 0.000000 0.000000
									CHANNELS 3 Zrotation Yrotation Xrotation
									JOINT LeftHandIndex1
									{
										OFFSET 0.715260 -0.000000 -0.000000
										CHANNELS 3 Zrotation Yrotation Xrotation
										End Site
										{
											OFFSET 0.000000 0.000000 0.000000
										}
									}
								}
								JOINT LThumb
								{
									OFFSET 0.000000 0.000000 0.000000
									CHANNELS 3 Zrotation Yrotation Xrotation
									End Site
									{
										OFFSET 0.000000 0.000000 0.000000
									}
								}
							}
						}
					}
				}
				JOINT RightShoulder
				{
					OFFSET 0.000000 0.000000 0.000000
					CHANNELS 3 Zrotation Yrotation Xrotation
					JOINT RightArm
					{
						OFFSET -3.136600 1.374050 -0.404650
						CHANNELS 3 Zrotation Yrotation Xrotation
						JOINT RightForeArm
						{
							OFFSET -5.241900 -0.000000 -0.000000
							CHANNELS 3 Zrotation Yrotation Xrotation
							JOINT RightHand
							{
								OFFSET -3.444170 -0.000000 -0.000000
								CHANNELS 3 Zrotation Yrotation Xrotation
								JOINT RightFingerBase
								{
									OFFSET 0.000000 0.000000 0.000000
									CHANNELS 3 Zrotation Yrotation Xrotation
									JOINT RightHandIndex1
									{
										OFFSET -0.622530 -0.000000 -0.000000
										CHANNELS 3 Zrotation Yrotation Xrotation
										End Site
										{
											OFFSET 0.000000 0.000000 0.000000
										}
									}
								}
								JOINT RThumb
								{
									OFFSET 0.000000 0.000000 0.000000
									CHANNELS 3 Zrotation Yrotation Xrotation
									End Site
									{
										OFFSET 0.000000 0.000000 0.000000
									}
								}
							}
						}
					}
				}
			}
		}
	}
}
}
MOTION
Frames: 7
Frame Time: 0.008333
6.366532 21.863861 1.052102 26.499357 -67.490607 8.625751 -3.352566 -1.524644 -0.084394 -0.322867 -1.270419 -3.317412 -0.085135 -1.332915 -2.028556 3.739959 -7.173431 2.001601 0.277569 -0.144342 2.534994 0.000000 0.000000 0.000000 21.383219 0.898517 -5.541344 -25.698921 -52.692422 -46.454888 177.913939 -76.927582 179.828673 12.100501 -0.978663 -0.190245 0.008603 0.811714 -0.000000 0.000000 0.000000 0.000000 0.000000 0.000000 0.000000 -11.210621 -5.733494 -0.549553 12.936742 19.184016 -43.739814 -179.529591 57.751078 179.798338 -21.348512 9.761690 -2.051375 0.548216 -0.826153 -0.000000 0.000000 0.000000 0.000000 0.000000 0.000000 0.000000 
6.237870 21.888160 1.079034 25.535416 -67.618029 10.929777 -2.549298 -1.472671 -0.356032 -0.121242 -1.269076 -3.246887 0.036369 -1.345136 -1.408269 3.580101 -7.985327 1.314410 0.393580 -0.124109 2.330061 0.000000 0.000000 0.000000 21.927714 2.305970 -5.361613 -22.499855 -50.470237 -49.421860 177.850833 -74.760259 179.833830 11.976959 -0.729757 -0.160714 -0.007510 0.795568 -0.000000 0.000000 0.000000 0.000000 0.000000 0.000000 0.000000 -12.064577 -6.563212 -0.285359 12.347457 15.696648 -45.362733 -179.657747 55.169598 179.807004 -21.165437 9.774093 -2.038802 0.580876 -0.824482 -0.000000 0.000000 0.000000 0.000000 0.000000 0.000000 0.000000 
6.100669 21.900528 1.112969 24.245511 -67.702613 13.484344 -1.595717 -1.412075 -0.651888 0.117547 -1.265738 -3.169487 0.119254 -1.357460 -0.760712 3.397277 -8.824790 0.559919 0.499761 -0.102644 2.105023 0.000000 0.000000 0.000000 22.338013 3.822286 -5.167789 -19.772646 -48.151552 -51.991162 177.812417 -72.619420 179.838316 11.872864 -0.528128 -0.137076 -0.024072 0.780632 -0.000000 0.000000 0.000000 0.000000 0.000000 0.000000 0.000000 -12.874093 -7.448991 -0.005071 12.086387 12.077538 -46.975188 -179.763056 52.830099 179.815771 -20.946133 9.795274 -2.023660 0.608170 -0.821400 -0.000000 0.000000 0.000000 0.000000 0.000000 0.000000 0.000000 
5.955114 21.902982 1.153055 22.626022 -67.727057 16.244844 -0.493312 -1.347386 -0.930237 0.392812 -1.264842 -3.078071 0.156033 -1.373926 -0.099067 3.199564 -9.677105 -0.254252 0.593382 -0.080232 1.861519 0.000000 0.000000 0.000000 22.629898 5.433112 -4.964593 -17.528864 -45.781332 -54.162285 177.792313 -70.511463 179.842169 11.782226 -0.382995 -0.119830 -0.040676 0.767393 -0.000000 0.000000 0.000000 0.000000 0.000000 0.000000 0.000000 -13.605625 -8.371367 0.284069 12.144389 8.394398 -48.546444 -179.832134 50.759346 179.824015 -20.725692 9.821682 -2.008646 0.629550 -0.816971 -0.000000 0.000000 0.000000 0.000000 0.000000 0.000000 0.000000 
5.801943 21.897746 1.197902 20.724815 -67.676648 19.119801 0.734998 -1.286192 -1.151943 0.698119 -1.272902 -2.966323 0.141949 -1.400580 0.564091 3.000587 -10.526520 -1.115487 0.672130 -0.057292 1.602791 0.000000 0.000000 0.000000 22.830022 7.110292 -4.753630 -15.760689 -43.391063 -55.949500 177.784706 -68.442415 179.845444 11.699988 -0.296794 -0.109178 -0.057079 0.756216 -0.000000 0.000000 0.000000 0.000000 0.000000 0.000000 0.000000 -14.223967 -9.310989 0.571624 12.502838 4.730203 -50.035855 -179.856859 48.978192 179.831311 -20.519883 9.851928 -1.994952 0.644410 -0.811480 -0.000000 0.000000 0.000000 0.000000 0.000000 0.000000 0.000000 
5.641803 21.887051 1.245608 18.643264 -67.535014 21.980161 2.046281 -1.241504 -1.284818 1.021797 -1.300933 -2.829829 0.076774 -1.447752 1.217242 2.820496 -11.356534 -2.006535 0.734573 -0.034330 1.333640 0.000000 0.000000 0.000000 22.979062 8.815946 -4.534595 -14.451770 -41.001762 -57.374093 177.784898 -66.412177 179.848253 11.617947 -0.268453 -0.104819 -0.073093 0.747381 -0.000000 0.000000 0.000000 0.000000 0.000000 0.000000 0.000000 -14.696330 -10.251388 0.843979 13.137889 1.180774 -51.395675 -179.836219 47.490995 179.837453 -20.326244 9.885639 -1.982170 0.652294 -0.805387 -0.000000 0.000000 0.000000 0.000000 0.000000 0.000000 0.000000 
5.475830 21.872061 1.293704 16.500317 -67.290718 24.687073 3.384645 -1.227153 -1.308408 1.348447 -1.360069 -2.667768 -0.035671 -1.525499 1.848716 2.683084 -12.151516 -2.905999 0.779876 -0.011954 1.060529 0.000000 0.000000 0.000000 23.129721 10.495613 -4.307434 -13.579810 -38.618410 -58.459101 177.789158 -64.425174 179.850701 11.530376 -0.291210 -0.105854 -0.088563 0.740952 -0.000000 0.000000 0.000000 0.000000 0.000000 0.000000 0.000000 -14.994983 -11.176099 1.087113 14.019369 -2.161453 -52.576469 -179.775485 46.295521 179.842432 -20.129498 9.925263 -1.969591 0.652875 -0.799229 0.000000 0.000000 0.000000 0.000000 0.000000 0.000000 0.000000 
